<svg class="icon icon-search" viewBox="0 0 20 20" fill="none" xmlns="http://www.w3.org/2000/svg">
<path d="M13.7783 13.9004L13.4492 13.5713L13.0974 13.876C11.7605 15.0338 10.0194 15.7344 8.11719 15.7344C3.91751 15.7344 0.5 12.3169 0.5 8.11719C0.5 3.91751 3.91751 0.5 8.11719 0.5C12.3169 0.5 15.7344 3.91751 15.7344 8.11719C15.7344 10.0197 15.0337 11.7609 13.8755 13.098L13.5708 13.4498L13.8999 13.7789L19.4748 19.3533C19.4748 19.3533 19.4748 19.3533 19.4749 19.3533C19.5085 19.387 19.5084 19.4413 19.4749 19.4748C19.4413 19.5084 19.3868 19.5084 19.3533 19.4748L19.3533 19.4748L13.7783 13.9004ZM8.11719 15.5625C12.223 15.5625 15.5625 12.223 15.5625 8.11719C15.5625 4.0114 12.223 0.671875 8.11719 0.671875C4.0114 0.671875 0.671875 4.0114 0.671875 8.11719C0.671875 12.223 4.0114 15.5625 8.11719 15.5625Z" fill="currentColor" stroke="currentColor"/>
</svg>
