<svg class="icon icon-account" viewBox="0 0 19 20" fill="none" xmlns="http://www.w3.org/2000/svg">
<path d="M1.53358 18.7841L1.48553 19.3281H2.03164H17.2145H17.7606L17.7125 18.7841C17.3968 15.2098 14.4204 12.3906 10.7949 12.3906H8.45117C4.82571 12.3906 1.84927 15.2098 1.53358 18.7841ZM4.84961 5.27344C4.84961 2.64181 6.99142 0.5 9.62305 0.5C12.2547 0.5 14.3965 2.64181 14.3965 5.27344C14.3965 7.90507 12.2547 10.0469 9.62305 10.0469C6.99142 10.0469 4.84961 7.90507 4.84961 5.27344ZM5.02148 5.27344C5.02148 7.81118 7.0853 9.875 9.62305 9.875C12.1608 9.875 14.2246 7.81118 14.2246 5.27344C14.2246 2.73569 12.1608 0.671875 9.62305 0.671875C7.0853 0.671875 5.02148 2.73569 5.02148 5.27344ZM10.7949 12.2188C12.6907 12.2188 14.4769 12.971 15.828 14.3428C17.173 15.7086 17.9121 17.5083 17.9121 19.4141C17.9121 19.4615 17.8736 19.5 17.8262 19.5H1.41992C1.37247 19.5 1.33398 19.4615 1.33398 19.4141C1.33398 17.5083 2.07306 15.7086 3.41811 14.3428C4.76923 12.971 6.55545 12.2188 8.45117 12.2188H10.7949Z" fill="currentColor" stroke="currentColor"/>
</svg>
