<svg xmlns="http://www.w3.org/2000/svg" viewBox="0 0 100 100" class="icon icon-fn-arrow">
  <path fill="currentColor" d="m50,23.34c-.88,0-1.59.71-1.59,1.59v46.37l-20.08-19.33c-.63-.61-1.64-.59-2.26.04-.61.63-.59,1.64.04,2.26l22.78,21.93c.62.59,1.59.59,2.21,0l22.78-21.93c.63-.61.65-1.62.04-2.26-.61-.63-1.62-.65-2.26-.04l-20.08,19.33V24.94c0-.88-.71-1.59-1.59-1.59Z"/>
  <path fill="currentColor" d="m2.28,50C2.28,23.64,23.64,2.28,50,2.28s47.72,21.37,47.72,47.72-21.37,47.72-47.72,47.72S2.28,76.36,2.28,50ZM50,0C22.39,0,0,22.39,0,50s22.39,50,50,50,50-22.39,50-50S77.61,0,50,0Z"/>
</svg>
