<svg xmlns="http://www.w3.org/2000/svg" fill="none" class="icon icon-cart-empty" viewBox="0 0 20 20">
  <mask id="a" fill="currentColor">
    <path d="M14.278 4.727V4.14C14.278 1.857 12.36 0 10.001 0 7.64 0 5.723 1.857 5.723 4.14v.587H.834V20h18.333V4.727h-4.889ZM6.945 4.14c0-1.637 1.37-2.97 3.056-2.97 1.684 0 3.055 1.333 3.055 2.97v.586h-6.11V4.14Zm11 14.687H2.056V5.898h3.667v2.344h1.222V5.898h6.111v2.344h1.222V5.898h3.667v12.93Z"/>
  </mask>
  <path fill="currentColor" d="M14.278 4.727V4.14C14.278 1.857 12.36 0 10.001 0 7.64 0 5.723 1.857 5.723 4.14v.587H.834V20h18.333V4.727h-4.889ZM6.945 4.14c0-1.637 1.37-2.97 3.056-2.97 1.684 0 3.055 1.333 3.055 2.97v.586h-6.11V4.14Zm11 14.687H2.056V5.898h3.667v2.344h1.222V5.898h6.111v2.344h1.222V5.898h3.667v12.93Z"/>
  <path fill="currentColor" d="M14.278 4.727h-1.333V6.06h1.333V4.727Zm-8.555 0V6.06h1.333V4.727H5.723Zm-4.889 0V3.393H-.499v1.334H.834ZM.834 20H-.499v1.333H.834V20Zm18.333 0v1.333h1.334V20h-1.334Zm0-15.273h1.334V3.393h-1.334v1.334Zm-6.11 0V6.06h1.332V4.727h-1.333Zm-6.112 0H5.612V6.06h1.333V4.727Zm11 14.101v1.334h1.333v-1.334h-1.333Zm-15.889 0H.723v1.334h1.333v-1.334Zm0-12.93V4.565H.723v1.333h1.333Zm3.667 0h1.333V4.565H5.723v1.333Zm0 2.344H4.39v1.334h1.333V8.242Zm1.222 0v1.334h1.333V8.242H6.945Zm0-2.344V4.565H5.612v1.333h1.333Zm6.111 0h1.334V4.565h-1.334v1.333Zm0 2.344h-1.333v1.334h1.333V8.242Zm1.222 0v1.334h1.334V8.242h-1.334Zm0-2.344V4.565h-1.333v1.333h1.333Zm3.667 0h1.333V4.565h-1.333v1.333Zm-2.333-1.171V4.14h-2.667v.586h2.667Zm0-.586c0-3.06-2.557-5.474-5.611-5.474v2.666c1.663 0 2.944 1.301 2.944 2.808h2.667ZM10-1.333C6.947-1.333 4.39 1.08 4.39 4.14h2.666c0-1.507 1.28-2.808 2.945-2.808v-2.666ZM4.39 4.14v.586h2.666V4.14H4.39Zm1.333-.748H.834V6.06h4.889V3.393ZM-.5 4.727V20h2.666V4.727H-.499ZM.834 21.333h18.333v-2.666H.834v2.666ZM20.501 20V4.727h-2.667V20h2.667ZM19.167 3.393h-4.889V6.06h4.89V3.393Zm-10.889.748c0-.865.738-1.636 1.723-1.636V-.16c-2.385 0-4.39 1.892-4.39 4.302h2.667Zm1.723-1.636c.985 0 1.722.771 1.722 1.636h2.666c0-2.41-2.004-4.302-4.388-4.302v2.666Zm1.722 1.636v.586h2.666V4.14h-2.666Zm1.333-.748h-6.11V6.06h6.11V3.393ZM8.278 4.727V4.14H5.612v.586h2.666Zm9.667 12.768H2.056v2.666h15.89v-2.666ZM3.39 18.828V5.898H.723v12.93H3.39ZM2.056 7.232h3.667V4.565H2.056v2.667ZM4.39 5.898v2.344h2.666V5.898H4.39Zm1.333 3.678h1.222V6.909H5.723v2.667Zm2.555-1.334V5.898H5.612v2.344h2.666Zm-1.333-1.01h6.111V4.565h-6.11v2.667Zm4.778-1.334v2.344h2.666V5.898h-2.666Zm1.333 3.678h1.222V6.909h-1.222v2.667Zm2.556-1.334V5.898h-2.667v2.344h2.667Zm-1.334-1.01h3.667V4.565h-3.667v2.667Zm2.334-1.334v12.93h2.666V5.898h-2.666Z" mask="url(#a)"/>
</svg>