<svg class="icon icon-heart" width="20" height="19" viewBox="0 0 20 19" fill="none" xmlns="http://www.w3.org/2000/svg">
  <path d="M18.5291 2.55284C17.5403 1.44398 16.1765 0.833328 14.6887 0.833328C13.0344 0.833328 11.597 1.6277 10.5321 3.13069C10.3223 3.42671 10.1469 3.72243 10.0024 3.99724C9.85794 3.72243 9.68262 3.42671 9.47281 3.13069C8.4079 1.62785 6.97052 0.833328 5.31601 0.833328C3.82828 0.833328 2.46368 1.44383 1.47369 2.55254C0.523377 3.61653 0 5.03819 0 6.55522C0 8.2018 0.642853 9.73149 2.02316 11.3692C3.2579 12.8344 5.0412 14.3505 7.10617 16.106C8.71216 17.4712 9.05884 17.7742 10.0024 18.5997C10.9615 17.7607 11.3039 17.4619 12.8894 16.1136C17.1713 12.4724 20 10.0669 20 6.55522C20 5.03789 19.4777 3.61653 18.5291 2.55284ZM12.1304 15.2211C11.447 15.8024 10.7437 16.4003 10.0024 17.0443C9.25781 16.3974 8.55148 15.797 7.86514 15.2134C3.83438 11.7867 1.17157 9.5229 1.17157 6.55522C1.17157 3.96107 2.95334 2.0049 5.31601 2.0049C6.58234 2.0049 7.65289 2.60258 8.49792 3.78148C9.16458 4.71135 9.43512 5.66624 9.43787 5.6757L9.99847 7.71764L10.567 5.6757C10.5698 5.66624 10.8403 4.71135 11.507 3.78148C12.352 2.60274 13.4225 2.0049 14.6887 2.0049C17.0488 2.0049 18.8284 3.96107 18.8284 6.55522C18.8284 9.52534 16.1638 11.7913 12.1304 15.2211Z" fill="currentColor"/>
</svg>
